<svg width="40" height="43" viewBox="0 0 40 43" fill="none" xmlns="http://www.w3.org/2000/svg">
<rect width="40" height="43" rx="10" fill="#FE724C"/>
<path d="M18.3134 11C18.4897 11 18.6589 11.07 18.7835 11.1947C18.9082 11.3194 18.9783 11.4885 18.9783 11.6649V14.3243C18.9783 14.5006 18.9082 14.6697 18.7835 14.7944C18.6589 14.9191 18.4897 14.9891 18.3134 14.9891C18.1371 14.9891 17.968 14.9191 17.8433 14.7944C17.7186 14.6697 17.6486 14.5006 17.6486 14.3243V11.6649C17.6486 11.4885 17.7186 11.3194 17.8433 11.1947C17.968 11.07 18.1371 11 18.3134 11ZM13.1408 13.1408C13.2026 13.0789 13.276 13.0298 13.3567 12.9963C13.4375 12.9628 13.5241 12.9455 13.6116 12.9455C13.699 12.9455 13.7856 12.9628 13.8664 12.9963C13.9471 13.0298 14.0205 13.0789 14.0823 13.1408L15.9625 15.0224C16.026 15.0837 16.0766 15.1571 16.1115 15.2382C16.1463 15.3193 16.1647 15.4065 16.1654 15.4948C16.1662 15.5831 16.1494 15.6707 16.1159 15.7524C16.0825 15.8341 16.0332 15.9083 15.9707 15.9707C15.9083 16.0332 15.8341 16.0825 15.7524 16.1159C15.6707 16.1494 15.5831 16.1662 15.4948 16.1654C15.4065 16.1647 15.3193 16.1463 15.2382 16.1115C15.1571 16.0766 15.0837 16.026 15.0224 15.9625L13.1422 14.0823C13.0175 13.9576 12.9475 13.7885 12.9475 13.6122C12.9475 13.4359 13.0175 13.2668 13.1422 13.1422L13.1408 13.1408ZM23.486 13.1408C23.5479 13.2026 23.597 13.276 23.6306 13.3567C23.6641 13.4375 23.6813 13.5241 23.6813 13.6116C23.6813 13.699 23.6641 13.7856 23.6306 13.8664C23.597 13.9471 23.5479 14.0205 23.486 14.0823L21.6031 15.9625C21.5418 16.026 21.4684 16.0766 21.3873 16.1115C21.3062 16.1463 21.219 16.1647 21.1307 16.1654C21.0424 16.1662 20.9549 16.1494 20.8731 16.1159C20.7914 16.0825 20.7172 16.0332 20.6548 15.9707C20.5924 15.9083 20.543 15.8341 20.5096 15.7524C20.4761 15.6707 20.4593 15.5831 20.4601 15.4948C20.4608 15.4065 20.4792 15.3193 20.514 15.2382C20.5489 15.1571 20.5995 15.0837 20.663 15.0224L22.5432 13.1422C22.6679 13.0175 22.837 12.9475 23.0133 12.9475C23.1896 12.9475 23.3587 13.0175 23.4833 13.1422L23.486 13.1408ZM11 18.3134C11 18.1371 11.07 17.968 11.1947 17.8433C11.3194 17.7186 11.4885 17.6486 11.6649 17.6486H14.3243C14.5006 17.6486 14.6697 17.7186 14.7944 17.8433C14.9191 17.968 14.9891 18.1371 14.9891 18.3134C14.9891 18.4897 14.9191 18.6589 14.7944 18.7835C14.6697 18.9082 14.5006 18.9783 14.3243 18.9783H11.6649C11.4885 18.9783 11.3194 18.9082 11.1947 18.7835C11.07 18.6589 11 18.4897 11 18.3134ZM18.3134 19.0208V31.334C18.3132 31.4656 18.352 31.5944 18.4251 31.704C18.4981 31.8135 18.602 31.8989 18.7237 31.9493C18.8453 31.9997 18.9792 32.0129 19.1083 31.9872C19.2374 31.9614 19.356 31.8979 19.449 31.8047L22.8531 28.4006C23.3517 27.9018 24.028 27.6215 24.7333 27.6214H29.0309C29.1689 27.6213 29.3035 27.5782 29.4159 27.4982C29.5283 27.4182 29.6131 27.3052 29.6584 27.1748C29.7037 27.0444 29.7073 26.9032 29.6687 26.7707C29.6302 26.6382 29.5513 26.521 29.4431 26.4353L19.3905 18.4982C19.2924 18.4208 19.1745 18.3725 19.0503 18.3589C18.926 18.3454 18.8005 18.3672 18.688 18.4217C18.5756 18.4763 18.4808 18.5614 18.4146 18.6674C18.3483 18.7733 18.3132 18.8958 18.3134 19.0208Z" fill="white"/>
</svg>
