<svg width="40" height="43" viewBox="0 0 40 43" fill="none" xmlns="http://www.w3.org/2000/svg">
<rect width="40" height="43" rx="10" fill="#FE724C"/>
<path d="M29.1925 20.748C29.6495 21.3458 29.6495 22.1527 29.1925 22.7495C27.7531 24.6286 24.2997 28.4975 20.2678 28.4975C16.2359 28.4975 12.7824 24.6286 11.343 22.7495C11.1207 22.4633 11 22.1112 11 21.7488C11 21.3863 11.1207 21.0342 11.343 20.748C12.7824 18.869 16.2359 15 20.2678 15C24.2997 15 27.7531 18.869 29.1925 20.748V20.748Z" stroke="white" stroke-width="2" stroke-linecap="round" stroke-linejoin="round"/>
<path d="M20.2683 24.6411C21.8657 24.6411 23.1606 23.3462 23.1606 21.7488C23.1606 20.1514 21.8657 18.8564 20.2683 18.8564C18.6709 18.8564 17.376 20.1514 17.376 21.7488C17.376 23.3462 18.6709 24.6411 20.2683 24.6411Z" stroke="white" stroke-width="2" stroke-linecap="round" stroke-linejoin="round"/>
</svg>
