<svg width="40" height="43" viewBox="0 0 40 43" fill="none" xmlns="http://www.w3.org/2000/svg">
<rect width="40" height="43" rx="10" fill="#FE724C"/>
<path d="M23.9927 28.9767L23.4513 24.3652C23.3746 23.712 23.0762 23.1111 22.6123 22.6755C22.1484 22.24 21.5509 21.9997 20.9322 22H19.0678C18.4494 22.0002 17.8523 22.2406 17.3888 22.6761C16.9252 23.1117 16.6271 23.7123 16.5504 24.3652L16.0082 28.9767C15.9784 29.23 15.9997 29.4872 16.0705 29.7312C16.1413 29.9751 16.2601 30.2002 16.419 30.3916C16.5779 30.5829 16.7733 30.7361 16.9921 30.841C17.2109 30.9459 17.4482 31 17.6881 30.9998H22.3136C22.5535 30.9999 22.7907 30.9457 23.0094 30.8407C23.2281 30.7358 23.4233 30.5826 23.5821 30.3913C23.7409 30.1999 23.8597 29.9748 23.9304 29.731C24.0012 29.4871 24.0225 29.23 23.9927 28.9767V28.9767Z" stroke="white" stroke-width="2" stroke-linecap="round" stroke-linejoin="round"/>
<path d="M20.0006 18.3999C21.4022 18.3999 22.5383 17.1911 22.5383 15.6999C22.5383 14.2088 21.4022 13 20.0006 13C18.5991 13 17.4629 14.2088 17.4629 15.6999C17.4629 17.1911 18.5991 18.3999 20.0006 18.3999Z" stroke="white" stroke-width="2"/>
<path d="M13.2328 21.0999C14.1672 21.0999 14.9247 20.2941 14.9247 19.3C14.9247 18.3059 14.1672 17.5 13.2328 17.5C12.2985 17.5 11.541 18.3059 11.541 19.3C11.541 20.2941 12.2985 21.0999 13.2328 21.0999Z" stroke="white" stroke-width="2"/>
<path d="M26.767 21.0999C27.7014 21.0999 28.4588 20.2941 28.4588 19.3C28.4588 18.3059 27.7014 17.5 26.767 17.5C25.8326 17.5 25.0752 18.3059 25.0752 19.3C25.0752 20.2941 25.8326 21.0999 26.767 21.0999Z" stroke="white" stroke-width="2"/>
<path d="M13.2326 23.7998H12.9737C12.5732 23.7998 12.1857 23.9509 11.8801 24.2262C11.5745 24.5016 11.3706 24.8834 11.3047 25.3037L11.023 27.1036C10.9826 27.3615 10.9955 27.6257 11.0607 27.8777C11.126 28.1298 11.2421 28.3637 11.4009 28.5632C11.5598 28.7627 11.7576 28.923 11.9805 29.0329C12.2035 29.1428 12.4463 29.1997 12.692 29.1997H15.7703" stroke="white" stroke-width="2" stroke-linecap="round" stroke-linejoin="round"/>
<path d="M26.7672 23.7998H27.0261C27.4266 23.7998 27.8141 23.9509 28.1197 24.2262C28.4253 24.5016 28.6292 24.8834 28.695 25.3037L28.9767 27.1036C29.0172 27.3615 29.0043 27.6257 28.939 27.8777C28.8738 28.1298 28.7577 28.3637 28.5988 28.5632C28.44 28.7627 28.2422 28.923 28.0193 29.0329C27.7963 29.1428 27.5535 29.1997 27.3078 29.1997H24.2295" stroke="white" stroke-width="2" stroke-linecap="round" stroke-linejoin="round"/>
</svg>
