<svg width="17" height="19" viewBox="0 0 17 19" fill="none" xmlns="http://www.w3.org/2000/svg">
<path d="M5.6001 2.26784C5.33488 2.26784 5.08053 2.37669 4.89299 2.57044C4.70545 2.7642 4.6001 3.02699 4.6001 3.301C4.6001 3.57501 4.70545 3.8378 4.89299 4.03156C5.08053 4.22531 5.33488 4.33416 5.6001 4.33416C5.86531 4.33416 6.11967 4.22531 6.3072 4.03156C6.49474 3.8378 6.6001 3.57501 6.6001 3.301C6.6001 3.02699 6.49474 2.7642 6.3072 2.57044C6.11967 2.37669 5.86531 2.26784 5.6001 2.26784ZM2.7701 2.26784C2.9767 1.66288 3.35984 1.13903 3.8667 0.768496C4.37356 0.397958 4.97918 0.198975 5.6001 0.198975C6.22101 0.198975 6.82664 0.397958 7.3335 0.768496C7.84036 1.13903 8.22349 1.66288 8.4301 2.26784H15.6001C15.8653 2.26784 16.1197 2.37669 16.3072 2.57044C16.4947 2.7642 16.6001 3.02699 16.6001 3.301C16.6001 3.57501 16.4947 3.8378 16.3072 4.03156C16.1197 4.22531 15.8653 4.33416 15.6001 4.33416H8.4301C8.22349 4.93912 7.84036 5.46297 7.3335 5.8335C6.82664 6.20404 6.22101 6.40302 5.6001 6.40302C4.97918 6.40302 4.37356 6.20404 3.8667 5.8335C3.35984 5.46297 2.9767 4.93912 2.7701 4.33416H1.6001C1.33488 4.33416 1.08053 4.22531 0.892991 4.03156C0.705455 3.8378 0.600098 3.57501 0.600098 3.301C0.600098 3.02699 0.705455 2.7642 0.892991 2.57044C1.08053 2.37669 1.33488 2.26784 1.6001 2.26784H2.7701ZM11.6001 8.46682C11.3349 8.46682 11.0805 8.57567 10.893 8.76943C10.7055 8.96318 10.6001 9.22597 10.6001 9.49999C10.6001 9.774 10.7055 10.0368 10.893 10.2305C11.0805 10.4243 11.3349 10.5332 11.6001 10.5332C11.8653 10.5332 12.1197 10.4243 12.3072 10.2305C12.4947 10.0368 12.6001 9.774 12.6001 9.49999C12.6001 9.22597 12.4947 8.96318 12.3072 8.76943C12.1197 8.57567 11.8653 8.46682 11.6001 8.46682ZM8.7701 8.46682C8.9767 7.86187 9.35984 7.33802 9.8667 6.96748C10.3736 6.59694 10.9792 6.39796 11.6001 6.39796C12.221 6.39796 12.8266 6.59694 13.3335 6.96748C13.8404 7.33802 14.2235 7.86187 14.4301 8.46682H15.6001C15.8653 8.46682 16.1197 8.57567 16.3072 8.76943C16.4947 8.96318 16.6001 9.22597 16.6001 9.49999C16.6001 9.774 16.4947 10.0368 16.3072 10.2305C16.1197 10.4243 15.8653 10.5332 15.6001 10.5332H14.4301C14.2235 11.1381 13.8404 11.662 13.3335 12.0325C12.8266 12.403 12.221 12.602 11.6001 12.602C10.9792 12.602 10.3736 12.403 9.8667 12.0325C9.35984 11.662 8.9767 11.1381 8.7701 10.5332H1.6001C1.33488 10.5332 1.08053 10.4243 0.892991 10.2305C0.705455 10.0368 0.600098 9.774 0.600098 9.49999C0.600098 9.22597 0.705455 8.96318 0.892991 8.76943C1.08053 8.57567 1.33488 8.46682 1.6001 8.46682H8.7701ZM5.6001 14.6658C5.33488 14.6658 5.08053 14.7747 4.89299 14.9684C4.70545 15.1622 4.6001 15.425 4.6001 15.699C4.6001 15.973 4.70545 16.2358 4.89299 16.4295C5.08053 16.6233 5.33488 16.7321 5.6001 16.7321C5.86531 16.7321 6.11967 16.6233 6.3072 16.4295C6.49474 16.2358 6.6001 15.973 6.6001 15.699C6.6001 15.425 6.49474 15.1622 6.3072 14.9684C6.11967 14.7747 5.86531 14.6658 5.6001 14.6658ZM2.7701 14.6658C2.9767 14.0609 3.35984 13.537 3.8667 13.1665C4.37356 12.7959 4.97918 12.5969 5.6001 12.5969C6.22101 12.5969 6.82664 12.7959 7.3335 13.1665C7.84036 13.537 8.22349 14.0609 8.4301 14.6658H15.6001C15.8653 14.6658 16.1197 14.7747 16.3072 14.9684C16.4947 15.1622 16.6001 15.425 16.6001 15.699C16.6001 15.973 16.4947 16.2358 16.3072 16.4295C16.1197 16.6233 15.8653 16.7321 15.6001 16.7321H8.4301C8.22349 17.3371 7.84036 17.8609 7.3335 18.2315C6.82664 18.602 6.22101 18.801 5.6001 18.801C4.97918 18.801 4.37356 18.602 3.8667 18.2315C3.35984 17.8609 2.9767 17.3371 2.7701 16.7321H1.6001C1.33488 16.7321 1.08053 16.6233 0.892991 16.4295C0.705455 16.2358 0.600098 15.973 0.600098 15.699C0.600098 15.425 0.705455 15.1622 0.892991 14.9684C1.08053 14.7747 1.33488 14.6658 1.6001 14.6658H2.7701Z" fill="white"/>
</svg>
