<svg width="15" height="12" viewBox="0 0 15 12" fill="none" xmlns="http://www.w3.org/2000/svg">
<path d="M14.2377 4.22554L9.86492 3.67806L7.91017 0.264102C7.85678 0.170629 7.76895 0.0949614 7.66045 0.0489671C7.38833 -0.0667604 7.05766 0.0296792 6.92161 0.264102L4.96686 3.67806L0.594082 4.22554C0.473525 4.24038 0.363301 4.28934 0.278911 4.36352C0.176889 4.45386 0.120669 4.5754 0.122607 4.70142C0.124545 4.82745 0.184481 4.94766 0.289245 5.03563L3.45301 7.69291L2.70555 11.4452C2.68802 11.5324 2.69924 11.6222 2.73792 11.7043C2.7766 11.7864 2.8412 11.8575 2.9244 11.9095C3.00759 11.9616 3.10606 11.9925 3.20862 11.9988C3.31118 12.0051 3.41375 11.9865 3.50467 11.9452L7.41589 10.1736L11.3271 11.9452C11.4339 11.9941 11.5579 12.0104 11.6767 11.9926C11.9764 11.9481 12.1779 11.7033 12.1262 11.4452L11.3788 7.69291L14.5425 5.03563C14.6286 4.96293 14.6855 4.86798 14.7027 4.76412C14.7492 4.50447 14.5391 4.26412 14.2377 4.22554Z" fill="#FFC529"/>
</svg>
