<svg width="14" height="15" viewBox="0 0 14 15" fill="none" xmlns="http://www.w3.org/2000/svg">
<path d="M6.7763 0C5.11893 0.00184311 3.53 0.623288 2.35806 1.72801C1.18612 2.83274 0.526864 4.33054 0.524909 5.89286C0.522924 7.16958 0.965337 8.41167 1.78428 9.42857C1.78428 9.42857 1.95477 9.64018 1.98262 9.67071L6.7763 15L11.5723 9.66804C11.5973 9.63964 11.7683 9.42857 11.7683 9.42857L11.7689 9.42696C12.5874 8.41051 13.0296 7.169 13.0277 5.89286C13.0257 4.33054 12.3665 2.83274 11.1945 1.72801C10.0226 0.623288 8.43368 0.00184311 6.7763 0ZM6.7763 8.03571C6.3267 8.03571 5.88719 7.91004 5.51336 7.67458C5.13953 7.43912 4.84816 7.10445 4.67611 6.71289C4.50405 6.32134 4.45903 5.89048 4.54675 5.47481C4.63446 5.05913 4.85097 4.67731 5.16888 4.37763C5.4868 4.07794 5.89185 3.87386 6.33282 3.79117C6.77378 3.70849 7.23085 3.75093 7.64623 3.91312C8.06161 4.0753 8.41664 4.34996 8.66643 4.70235C8.91621 5.05474 9.04954 5.46904 9.04954 5.89286C9.04879 6.46096 8.80904 7.00559 8.38289 7.4073C7.95674 7.80901 7.37897 8.03501 6.7763 8.03571Z" fill="#FE724C"/>
</svg>
