<svg width="310" height="340" viewBox="0 0 310 340" fill="none" xmlns="http://www.w3.org/2000/svg">
<path d="M260.508 21.9279C305.892 45.4897 341.231 86.2719 350.706 136.555C360.013 185.945 340.054 234.722 307.879 273.313C275.701 311.906 231.318 339.153 181.102 339.974C128.438 340.835 75.491 320.204 44.4458 277.62C14.0529 235.93 15.9097 181.21 28.9597 131.283C41.8276 82.0523 67.5236 35.1233 113.506 13.4068C160.207 -8.64915 214.669 -1.87061 260.508 21.9279Z" fill="#FE724C"/>
<g clip-path="url(#clip0_2014:10860)">
<path d="M17.5615 257.147L8.88762 249.806C9.87957 243.922 12.293 238.368 15.9184 233.628C16.2099 244.233 27.08 251.335 30.8206 261.262C31.9636 264.367 32.3931 267.69 32.0773 270.984C31.7615 274.278 30.7086 277.458 28.9966 280.29L28.124 288.301C23.387 285.833 19.2414 282.367 15.973 278.142C12.7045 273.917 10.3908 269.034 9.19134 263.829C8.54736 260.902 8.2745 257.906 8.37922 254.911C12.8203 256.262 17.5615 257.147 17.5615 257.147Z" fill="#F2F2F2"/>
<path d="M260.704 271.187L266.761 261.573C272.727 261.733 278.563 263.347 283.763 266.275C273.303 268.045 267.788 279.8 258.48 284.89C255.565 286.456 252.335 287.345 249.029 287.492C245.723 287.64 242.427 287.041 239.384 285.741L231.329 285.996C233.112 280.961 235.965 276.372 239.692 272.545C243.419 268.719 247.932 265.746 252.918 263.832C255.726 262.785 258.655 262.097 261.635 261.782C260.917 266.368 260.704 271.187 260.704 271.187Z" fill="#F2F2F2"/>
<path d="M68.9743 239.847L35.3887 237.877L39.9925 205.322L69.5882 237.219L68.9743 239.847Z" fill="#F2F2F2"/>
<path d="M64.6995 273.06L30.5 270.758L35.06 241.165L64.8538 270.763L64.6995 273.06Z" fill="#F2F2F2"/>
<path d="M255.75 135.731V105.66C255.75 103.375 255.3 101.111 254.425 98.9998C253.55 96.8882 252.268 94.9696 250.652 93.3534C249.036 91.7373 247.117 90.4553 245.006 89.5807C242.894 88.706 240.631 88.2559 238.345 88.2559H174.635C172.349 88.2559 170.086 88.706 167.975 89.5807C165.863 90.4553 163.944 91.7373 162.328 93.3534C160.712 94.9696 159.43 96.8882 158.555 98.9998C157.681 101.111 157.23 103.375 157.23 105.66V270.632C157.23 275.248 159.064 279.674 162.328 282.938C165.592 286.202 170.019 288.036 174.635 288.036H238.345C242.961 288.036 247.388 286.202 250.652 282.938C253.916 279.674 255.75 275.248 255.75 270.632V157.136C256.041 157.136 256.32 157.02 256.526 156.815C256.732 156.609 256.848 156.33 256.848 156.038V136.829C256.848 136.538 256.732 136.258 256.526 136.053C256.32 135.847 256.041 135.731 255.75 135.731Z" fill="#3F3D56"/>
<path d="M252.046 105.78V270.513C252.046 273.935 250.697 277.218 248.29 279.651C245.883 282.083 242.614 283.467 239.192 283.503C239.145 283.508 239.097 283.51 239.05 283.509H175.029C171.583 283.509 168.277 282.139 165.84 279.702C163.403 277.265 162.034 273.96 162.033 270.513V105.78C162.034 102.333 163.403 99.0276 165.84 96.5905C168.277 94.1533 171.583 92.784 175.029 92.7837H182.799C182.417 93.7216 182.271 94.739 182.375 95.7464C182.478 96.7538 182.828 97.7203 183.393 98.5608C183.958 99.4013 184.72 100.09 185.614 100.567C186.508 101.043 187.505 101.293 188.517 101.294H225.017C226.028 101.291 227.024 101.04 227.916 100.563C228.809 100.085 229.57 99.3964 230.134 98.5564C230.698 97.7163 231.047 96.7507 231.151 95.7442C231.255 94.7378 231.11 93.7212 230.729 92.7837H239.05C242.497 92.784 245.802 94.1533 248.239 96.5905C250.676 99.0276 252.046 102.333 252.046 105.78Z" fill="white"/>
<path d="M237.951 279.488C237.951 281.194 237.897 282.887 237.79 284.565C237.743 284.57 237.696 284.573 237.648 284.571H173.63C170.733 284.571 167.92 283.604 165.636 281.823C163.351 280.041 161.728 277.548 161.022 274.739C160.898 274.249 160.805 273.751 160.742 273.25C160.67 272.695 160.633 272.136 160.634 271.576V198.163C165.56 198.407 170.453 199.098 175.254 200.228C175.724 200.337 176.191 200.452 176.655 200.57C176.685 200.577 176.714 200.587 176.744 200.593C177.214 200.712 177.681 200.837 178.145 200.965C188.041 203.683 197.332 208.257 205.521 214.444C205.991 214.796 206.458 215.157 206.922 215.522L207.01 215.591C207.786 216.203 208.55 216.83 209.302 217.472C209.47 217.614 209.638 217.758 209.802 217.906C210.207 218.255 210.611 218.61 211.006 218.969C219.738 226.829 226.67 236.482 231.328 247.268C231.483 247.62 231.631 247.975 231.779 248.33C231.838 248.475 231.897 248.62 231.956 248.764C232.012 248.896 232.065 249.028 232.117 249.159C235.983 258.803 237.964 269.098 237.951 279.488Z" fill="#3F3D56"/>
<path d="M157.583 152.554C157.19 152.554 156.814 152.397 156.536 152.12C156.258 151.842 156.102 151.465 156.102 151.072V140.998C156.102 140.605 156.258 140.228 156.535 139.951C156.813 139.673 157.19 139.517 157.583 139.517C157.976 139.517 158.353 139.673 158.631 139.951C158.909 140.228 159.065 140.605 159.065 140.998V151.072C159.064 151.465 158.908 151.842 158.63 152.12C158.352 152.397 157.976 152.554 157.583 152.554Z" fill="#3F3D56"/>
<path d="M157.286 132.998C156.893 132.997 156.517 132.841 156.239 132.563C155.961 132.286 155.805 131.909 155.805 131.516V121.442C155.805 121.049 155.961 120.672 156.239 120.394C156.516 120.117 156.893 119.96 157.286 119.96C157.679 119.96 158.056 120.117 158.334 120.394C158.612 120.672 158.768 121.049 158.768 121.442V131.516C158.767 131.909 158.611 132.286 158.333 132.563C158.056 132.841 157.679 132.997 157.286 132.998Z" fill="#3F3D56"/>
<path d="M196.695 94.4781C196.696 94.0853 196.852 93.7088 197.13 93.431C197.407 93.1533 197.784 92.997 198.177 92.9966H208.251C208.446 92.9963 208.639 93.0344 208.819 93.1087C208.999 93.183 209.163 93.2921 209.3 93.4297C209.438 93.5673 209.548 93.7308 209.622 93.9106C209.697 94.0905 209.735 94.2834 209.735 94.4781C209.735 94.6729 209.697 94.8657 209.622 95.0456C209.548 95.2255 209.438 95.3889 209.3 95.5265C209.163 95.6641 208.999 95.7732 208.819 95.8475C208.639 95.9218 208.446 95.9599 208.251 95.9596H198.177C197.784 95.9592 197.407 95.8029 197.13 95.5252C196.852 95.2475 196.696 94.8709 196.695 94.4781Z" fill="white"/>
<path d="M157.583 169.74C157.19 169.739 156.814 169.583 156.536 169.305C156.258 169.027 156.102 168.651 156.102 168.258V158.184C156.102 157.791 156.258 157.414 156.535 157.136C156.813 156.858 157.19 156.702 157.583 156.702C157.976 156.702 158.353 156.858 158.631 157.136C158.909 157.414 159.065 157.791 159.065 158.184V168.258C159.064 168.651 158.908 169.027 158.63 169.305C158.352 169.583 157.976 169.739 157.583 169.74Z" fill="#3F3D56"/>
<path d="M213.881 95.9596C214.699 95.9596 215.362 95.2963 215.362 94.4781C215.362 93.6599 214.699 92.9966 213.881 92.9966C213.063 92.9966 212.399 93.6599 212.399 94.4781C212.399 95.2963 213.063 95.9596 213.881 95.9596Z" fill="white"/>
<path opacity="0.2" d="M208.412 272.188C208.411 269.112 209.017 266.066 210.194 263.224C211.371 260.382 213.096 257.799 215.271 255.624C217.446 253.449 220.029 251.724 222.871 250.547C225.713 249.37 228.759 248.764 231.835 248.765H231.957C231.898 248.62 231.838 248.475 231.779 248.331C231.631 247.975 231.483 247.62 231.329 247.268H208.412V217.907H209.803C209.638 217.759 209.471 217.614 209.303 217.473C208.55 216.831 207.786 216.204 207.011 215.592L206.922 215.523V216.41H178.145V200.965C177.681 200.837 177.214 200.712 176.744 200.593C176.715 200.587 176.685 200.577 176.655 200.57V216.41H162.035V217.907H176.655V247.268H162.035V248.765H176.655V272.188H162.144C162.206 272.689 162.299 273.187 162.423 273.677H176.655V283.509H178.145V273.677H206.922V283.509H208.412V273.677H233.519V272.188H208.412ZM206.922 272.188H178.145V248.765H206.922V272.188ZM206.922 247.268H178.145V246.683C178.145 239.051 181.177 231.732 186.574 226.335C191.97 220.938 199.29 217.907 206.922 217.907V247.268Z" fill="black"/>
<path d="M79.3181 164.806L63.3463 287.666L63.2443 288.448H62.5801L62.682 287.666L78.667 164.72L79.3181 164.806Z" fill="#E5E5E5"/>
<path d="M46.0656 164.96L28.4528 287.679L28.341 288.461H27.6768L27.7886 287.679L45.4145 164.868L46.0656 164.96Z" fill="#E5E5E5"/>
<path d="M104.152 288.432L103.468 288.435L103.258 287.652L69.1865 161.1L69.8212 160.929L103.938 287.652L104.152 288.432Z" fill="#3F3D56"/>
<path d="M102.709 160.924L102.076 161.103L137.981 287.755L138.614 287.576L102.709 160.924Z" fill="#3F3D56"/>
<path d="M131.761 264.519L99.2031 271.254L99.3364 271.898L131.894 265.163L131.761 264.519Z" fill="#3F3D56"/>
<path d="M126.115 244.762L93.5576 251.498L93.6909 252.142L126.248 245.406L126.115 244.762Z" fill="#3F3D56"/>
<path d="M120.475 225.005L88.1445 231.262L88.2694 231.907L120.6 225.65L120.475 225.005Z" fill="#3F3D56"/>
<path d="M114.829 205.252L83.2031 211.502L83.3306 212.147L114.957 205.898L114.829 205.252Z" fill="#3F3D56"/>
<path d="M45.5091 164.938C45.0146 161.707 45.8237 158.412 47.7586 155.778C49.6934 153.144 52.5955 151.386 55.8263 150.891C59.0571 150.397 62.3521 151.206 64.9864 153.141C67.6206 155.076 69.3784 157.978 69.873 161.208L69.223 161.308C68.9919 159.793 68.4645 158.338 67.6711 157.027C66.8776 155.716 65.8336 154.574 64.5987 153.667C63.3637 152.759 61.9621 152.104 60.4738 151.738C58.9856 151.373 57.4398 151.304 55.925 151.536C54.4101 151.767 52.9557 152.296 51.645 153.09C50.3343 153.884 49.1928 154.928 48.2859 156.164C47.379 157.399 46.7244 158.801 46.3595 160.289C45.9946 161.778 45.9265 163.324 46.1591 164.838L45.5091 164.938Z" fill="#3F3D56"/>
<path d="M78.4464 165.085C78.18 163.488 78.2307 161.855 78.5957 160.278C78.9608 158.701 79.6329 157.211 80.5737 155.894C81.5146 154.577 82.7057 153.458 84.0791 152.601C85.4525 151.744 86.9812 151.166 88.5779 150.9C90.1746 150.634 91.8081 150.686 93.385 151.051C94.962 151.417 96.4514 152.089 97.7683 153.031C99.0853 153.972 100.204 155.163 101.06 156.537C101.917 157.911 102.494 159.439 102.759 161.036L102.111 161.144C101.601 158.093 99.9007 155.37 97.3836 153.572C94.8664 151.775 91.7385 151.051 88.6874 151.559C85.6364 152.067 82.9119 153.766 81.1132 156.282C79.3144 158.798 78.5885 161.926 79.0951 164.977L78.4464 165.085Z" fill="#3F3D56"/>
<path d="M112.427 191.921L106.107 207.296L126.699 207.147L124.605 191.887L112.427 191.921Z" fill="#FFB6B6"/>
<path d="M117.456 262.501L120.51 262.947L123.682 251.378L119.174 250.721L117.456 262.501Z" fill="#FFB6B6"/>
<path d="M116.919 260.884L121.789 261.3L121.487 263.368L125.615 267.208C125.819 267.398 125.957 267.648 126.009 267.921C126.06 268.195 126.023 268.478 125.903 268.729C125.783 268.98 125.585 269.186 125.339 269.317C125.094 269.448 124.813 269.497 124.537 269.456L118.789 268.618L118.097 266.427L117.411 268.417L115.244 268.101L116.919 260.884Z" fill="#2F2E41"/>
<path d="M82.1592 253.957L84.5959 255.852L93.0636 247.355L89.4674 244.559L82.1592 253.957Z" fill="#FFB6B6"/>
<path d="M82.4888 252.285L86.5193 255.05L85.236 256.701L86.9312 262.077C87.015 262.343 87.0117 262.628 86.9217 262.892C86.8318 263.155 86.66 263.383 86.4314 263.542C86.2028 263.701 85.9294 263.783 85.6511 263.775C85.3727 263.768 85.104 263.672 84.8842 263.501L80.2987 259.935L80.7776 257.688L79.1997 259.08L77.4707 257.736L82.4888 252.285Z" fill="#2F2E41"/>
<path d="M107.271 203.648L105.243 206.334L99.8447 229.82L87.5752 246.39L91.6996 250.351L107.349 235.169L115.029 218.947L118.915 233.93L117.928 253.989L124.505 253.661C126.287 230.382 129.076 206.43 125.791 199.704C123.627 201.592 121.099 203.019 118.364 203.897C115.629 204.775 112.744 205.086 109.884 204.811L107.271 203.648Z" fill="#2F2E41"/>
<path d="M118.126 167.058L123.314 172.732C124.453 173.977 125.175 175.547 125.379 177.221C125.472 177.982 125.457 178.752 125.333 179.508L124.215 187.703L126.188 200.198C126.188 200.198 123.376 201.914 117.967 205.46C115.759 206.907 105.458 206.884 105.471 206.446C105.529 204.42 107.342 198.959 107.773 192.306C108.305 184.095 107.607 174.294 109.417 169.617C111.626 163.906 118.126 167.058 118.126 167.058Z" fill="white"/>
<path d="M100.32 203.415C100.546 203.086 100.698 202.711 100.764 202.317C100.83 201.922 100.808 201.519 100.701 201.134C100.594 200.749 100.404 200.392 100.144 200.088C99.8837 199.785 99.5604 199.542 99.1964 199.377L99.3993 193.134L95.6353 192.085L95.4726 200.906C95.2359 201.536 95.2384 202.23 95.4797 202.858C95.721 203.486 96.1843 204.004 96.7818 204.313C97.3793 204.623 98.0695 204.702 98.7217 204.537C99.3738 204.371 99.9425 203.972 100.32 203.415V203.415Z" fill="#FFB6B6"/>
<path d="M95.3001 178.212C95.4112 177.921 95.5814 177.656 95.8001 177.435C96.0188 177.213 96.2812 177.039 96.5705 176.924C98.5737 176.082 107.235 169.005 107.554 169.138L110.304 167.781C110.405 167.782 113.114 167.846 114.443 169.353C114.719 169.671 114.923 170.045 115.041 170.449C115.159 170.854 115.188 171.279 115.126 171.696C114.737 175.284 102.459 183.344 101.157 183.289L99.7787 193.477L100.315 197.37L95.2939 197.512L93.7466 191.781C93.5245 191.364 93.2441 183.447 95.3001 178.212Z" fill="white"/>
<path d="M115.43 172.77C115.837 169.985 114.272 167.45 111.936 167.109C109.6 166.769 107.376 168.751 106.97 171.536C106.564 174.322 108.128 176.856 110.465 177.197C112.801 177.537 115.024 175.556 115.43 172.77Z" fill="white"/>
<path d="M77.6868 190.982L77.5596 190.337L108.102 183.428V184.085L77.6868 190.982Z" fill="#3F3D56"/>
<path d="M212.896 144.51H201.183C198.656 144.51 196.607 146.558 196.607 149.085V149.085C196.607 151.612 198.656 153.66 201.183 153.66H212.896C215.423 153.66 217.472 151.612 217.472 149.085C217.472 146.558 215.423 144.51 212.896 144.51Z" fill="#E6E6E6"/>
<path d="M234.629 162.811H179.451C176.924 162.811 174.876 164.859 174.876 167.386V167.386C174.876 169.912 176.924 171.961 179.451 171.961H234.629C237.156 171.961 239.204 169.912 239.204 167.386C239.204 164.859 237.156 162.811 234.629 162.811Z" fill="#E6E6E6"/>
<path d="M210.952 176.507H155.774C153.248 176.507 151.199 178.555 151.199 181.082V181.082C151.199 183.609 153.248 185.657 155.774 185.657H210.952C213.479 185.657 215.528 183.609 215.528 181.082C215.528 178.555 213.479 176.507 210.952 176.507Z" fill="#272D2F"/>
<path d="M283.685 287.971C283.686 288.023 283.676 288.074 283.656 288.121C283.636 288.169 283.607 288.212 283.571 288.248C283.535 288.285 283.492 288.314 283.444 288.333C283.396 288.353 283.345 288.363 283.294 288.363L88.3929 288.432L87.7089 288.435L47.4851 288.448H46.8208L12.5818 288.461H11.9175L1.23019 288.465C1.1264 288.465 1.02687 288.423 0.953482 288.35C0.880095 288.277 0.838867 288.177 0.838867 288.073C0.838867 287.97 0.880095 287.87 0.953482 287.797C1.02687 287.723 1.1264 287.682 1.23019 287.682L12.0293 287.679H12.6936L46.9227 287.666H47.587L87.4985 287.652H88.1792L122.188 287.639H122.635L283.294 287.58C283.346 287.58 283.396 287.59 283.444 287.61C283.492 287.629 283.535 287.658 283.571 287.694C283.607 287.731 283.636 287.774 283.656 287.821C283.676 287.869 283.686 287.92 283.685 287.971Z" fill="#CACACA"/>
<path d="M123.617 161.393C122.635 162.697 121.239 163.628 119.657 164.032C118.076 164.436 116.404 164.29 114.917 163.617C113.43 162.944 112.216 161.785 111.476 160.33C110.735 158.876 110.513 157.212 110.844 155.614C111.175 154.016 112.041 152.578 113.299 151.538C114.556 150.497 116.131 149.916 117.763 149.89C119.395 149.864 120.987 150.394 122.277 151.394C123.568 152.394 124.479 153.803 124.861 155.39C124.882 155.476 124.899 155.562 124.916 155.65C125.118 156.645 125.107 157.671 124.883 158.661C124.659 159.651 124.227 160.582 123.617 161.393Z" fill="#FFB6B6"/>
<path d="M125.485 155.733C125.304 154.833 125.373 155.298 125.188 154.401C125.226 154.835 125.131 155.271 124.916 155.65L116.452 154.416L117.17 149.496C119.793 148.875 122.339 148.392 123.538 150.425C124.843 150.615 126.018 151.316 126.807 152.373C127.595 153.431 127.93 154.758 127.74 156.062L125.485 155.733Z" fill="#2F2E41"/>
<path d="M120.491 168.972C120.497 168.88 120.501 168.784 120.502 168.691C120.485 168.006 120.397 167.325 120.237 166.659C120.093 165.936 119.946 165.21 119.799 164.488C119.936 165.781 119.646 167.083 118.975 168.196C117.709 166.875 118.546 164.962 116.679 164.69C112.188 164.035 108.534 159.219 109.19 154.725C109.845 150.235 112.261 147.158 116.751 147.813C121.245 148.468 124.59 151.057 124.022 155.56C118.301 156.054 121.602 168.669 120.491 168.972Z" fill="#2F2E41"/>
<path d="M110.61 151.912C112.266 151.912 113.609 150.569 113.609 148.913C113.609 147.256 112.266 145.914 110.61 145.914C108.953 145.914 107.61 147.256 107.61 148.913C107.61 150.569 108.953 151.912 110.61 151.912Z" fill="#2F2E41"/>
<path d="M114.168 146.436C113.888 145.831 113.464 145.304 112.932 144.902C112.4 144.5 111.777 144.236 111.118 144.132C111.582 144.342 111.987 144.662 112.298 145.066C112.609 145.469 112.816 145.943 112.901 146.445C112.985 146.947 112.945 147.462 112.784 147.945C112.622 148.428 112.345 148.864 111.975 149.214L112.582 148.693C112.747 148.834 112.953 148.918 113.169 148.934C113.386 148.949 113.602 148.895 113.786 148.779C113.966 148.658 114.116 148.497 114.225 148.31C114.334 148.122 114.399 147.912 114.416 147.696C114.444 147.261 114.359 146.827 114.168 146.436Z" fill="#2F2E41"/>
<path d="M152.347 178.159C151.991 177.979 151.599 177.878 151.2 177.866C150.8 177.853 150.403 177.928 150.036 178.085C149.668 178.243 149.34 178.479 149.074 178.777C148.807 179.075 148.61 179.427 148.495 179.81L142.28 180.44L141.741 184.31L150.505 183.297C151.161 183.448 151.849 183.353 152.44 183.031C153.03 182.708 153.482 182.18 153.709 181.546C153.936 180.913 153.922 180.218 153.672 179.594C153.421 178.97 152.95 178.459 152.347 178.159Z" fill="#FFB6B6"/>
<path d="M128.037 186.488C127.734 186.417 127.449 186.283 127.2 186.096C126.951 185.909 126.744 185.672 126.591 185.4C125.491 183.527 117.324 175.884 117.413 175.55L115.702 173.006C115.69 172.905 115.393 170.212 116.709 168.695C116.988 168.379 117.332 168.126 117.717 167.956C118.102 167.785 118.519 167.7 118.941 167.706C122.549 167.614 131.62 179.033 131.74 180.33L142.571 180.018L146.357 178.969L147.167 183.926L141.693 186.222C141.308 186.498 133.499 187.829 128.037 186.488Z" fill="white"/>
</g>
<defs>
<clipPath id="clip0_2014:10860">
<rect width="282.924" height="200.209" fill="white" transform="translate(0.838867 88.2559)"/>
</clipPath>
</defs>
</svg>
